<?xml version="1.0" standalone="no"?>
<!DOCTYPE svg PUBLIC "-//W3C//DTD SVG 20010904//EN"
 "http://www.w3.org/TR/2001/REC-SVG-20010904/DTD/svg10.dtd">
<svg version="1.0" xmlns="http://www.w3.org/2000/svg"
 width="355.000000pt" height="104.000000pt" viewBox="0 0 355.000000 104.000000"
 preserveAspectRatio="xMidYMid meet">

<g transform="translate(0.000000,104.000000) scale(0.100000,-0.100000)"
fill="#000000" stroke="none">
<path d="M421 947 l-225 -62 -83 -210 c-46 -116 -82 -216 -81 -223 5 -24 291
-382 305 -382 29 0 458 81 465 88 9 9 168 409 168 423 0 22 -293 429 -309 428
-9 0 -117 -28 -240 -62z m305 -108 c36 -72 63 -133 60 -136 -3 -3 -96 25 -207
62 l-203 68 135 68 c74 37 137 68 141 68 5 1 37 -58 74 -130z m-309 50 c-61
-31 -86 -39 -108 -34 -16 4 -29 10 -29 13 0 7 181 60 205 61 6 0 -25 -18 -68
-40z m-140 -55 c14 -4 22 -12 19 -19 -6 -15 -176 -235 -182 -235 -2 0 5 21 15
48 96 242 88 225 108 218 8 -4 26 -9 40 -12z m298 -100 c110 -37 204 -70 208
-74 7 -6 -276 -234 -305 -245 -9 -4 -27 47 -62 177 -27 101 -51 189 -54 196
-2 6 0 12 4 12 5 0 99 -30 209 -66z m-195 -138 c29 -103 50 -190 47 -193 -6
-6 -329 57 -340 66 -4 4 48 78 115 164 67 86 123 156 124 154 2 -2 26 -87 54
-191z m471 108 c17 -26 25 -45 18 -42 -14 4 -66 88 -55 88 3 0 19 -21 37 -46z
m42 -99 c20 -14 37 -30 37 -35 0 -15 -103 -270 -107 -266 -7 6 20 326 27 326
3 0 22 -11 43 -25z m-98 -197 c-9 -112 -19 -205 -20 -207 -2 -1 -67 36 -145
85 -111 69 -138 90 -128 100 39 36 301 234 305 230 3 -3 -3 -96 -12 -208z
m-520 -14 c77 -15 144 -30 148 -34 8 -7 -74 -215 -91 -232 -4 -4 -57 56 -117
134 -136 175 -134 172 -104 165 13 -3 87 -18 164 -33z m338 -137 c70 -43 127
-80 125 -82 -8 -7 -360 -66 -365 -62 -9 10 91 235 102 230 6 -3 68 -42 138
-86z"/>
<path d="M2570 545 l0 -265 25 0 c24 0 25 3 25 53 0 49 3 56 45 97 29 29 48
41 53 34 4 -6 39 -50 77 -98 59 -72 75 -86 99 -86 21 0 26 3 19 13 -5 6 -45
56 -88 110 l-78 98 79 80 c74 75 77 79 50 79 -22 0 -53 -23 -142 -106 l-114
-106 0 181 0 181 -25 0 -25 0 0 -265z"/>
<path d="M3003 803 c-7 -2 -13 -15 -13 -28 0 -31 36 -43 58 -21 27 27 -8 65
-45 49z"/>
<path d="M1080 529 l0 -251 143 4 c118 3 150 7 187 24 95 44 140 117 140 225
0 58 -5 80 -26 120 -53 96 -135 129 -321 129 l-123 0 0 -251z m317 183 c145
-75 145 -288 0 -364 -35 -18 -59 -22 -152 -22 l-110 -1 -3 195 c-1 107 0 201
3 208 9 24 208 11 262 -16z"/>
<path d="M1755 648 c-77 -28 -125 -97 -125 -176 0 -153 172 -242 301 -157 103
67 103 242 1 310 -46 30 -129 41 -177 23z m118 -42 c18 -7 43 -26 57 -41 22
-23 25 -36 25 -95 0 -62 -3 -72 -29 -99 -93 -97 -246 -36 -246 97 0 109 98
179 193 138z"/>
<path d="M2205 648 c-77 -28 -125 -97 -125 -176 0 -153 172 -242 301 -157 103
67 103 242 1 310 -46 30 -129 41 -177 23z m118 -42 c18 -7 43 -26 57 -41 22
-23 25 -36 25 -95 0 -62 -3 -72 -29 -99 -93 -97 -246 -36 -246 97 0 109 98
179 193 138z"/>
<path d="M3000 470 c0 -183 1 -190 20 -190 19 0 20 7 20 190 0 183 -1 190 -20
190 -19 0 -20 -7 -20 -190z"/>
<path d="M3275 649 c-57 -16 -106 -78 -120 -150 -20 -109 77 -219 195 -219 39
0 96 19 121 39 20 16 21 21 10 35 -12 14 -16 14 -40 -3 -85 -61 -212 -17 -236
82 l-7 27 161 0 c160 0 161 0 161 23 -1 32 -25 95 -47 119 -42 48 -127 68
-198 47z m106 -39 c42 -12 75 -44 84 -82 l7 -28 -136 0 c-75 0 -136 2 -136 5
0 3 7 21 15 41 10 25 26 40 57 54 50 23 60 23 109 10z"/>
</g>
</svg>
